<svg xmlns="http://www.w3.org/2000/svg" width="600" height="680" viewBox="0 0 480 544">
  <style>
    .panel { fill: #ffffff; stroke: #d8e1ee; stroke-width: 2; }
    .one { fill: #38a169; }
    .two { fill: #ed8936; }
    .divider { stroke: #ffffff; stroke-width: 3; opacity: .75; }
    .label { fill: #172033; font-family: Inter, Arial, sans-serif; font-size: 22px; font-weight: 700; }
  </style>

  <rect class="panel" x="40" y="24" width="400" height="72" rx="12"/>
  <rect class="panel" x="40" y="126" width="400" height="204" rx="12"/>
  <rect class="panel" x="40" y="360" width="400" height="160" rx="12"/>

  <text class="label" x="64" y="68">k = 0</text>
  <g transform="translate(150 44)">
    <rect class="one" x="0" y="0" width="46" height="32" rx="7"/>
    <rect class="one" x="54" y="0" width="46" height="32" rx="7"/>
    <rect class="one" x="108" y="0" width="46" height="32" rx="7"/>
    <rect class="one" x="162" y="0" width="46" height="32" rx="7"/>
    <rect class="one" x="216" y="0" width="46" height="32" rx="7"/>
  </g>

  <text class="label" x="64" y="236">k = 1</text>
  <g transform="translate(150 146)">
    <rect class="two" x="0" y="0" width="100" height="32" rx="7"/>
    <line class="divider" x1="50" y1="0" x2="50" y2="32"/>
    <rect class="one" x="108" y="0" width="46" height="32" rx="7"/>
    <rect class="one" x="162" y="0" width="46" height="32" rx="7"/>
    <rect class="one" x="216" y="0" width="46" height="32" rx="7"/>
  </g>
  <g transform="translate(150 190)">
    <rect class="one" x="0" y="0" width="46" height="32" rx="7"/>
    <rect class="two" x="54" y="0" width="100" height="32" rx="7"/>
    <line class="divider" x1="104" y1="0" x2="104" y2="32"/>
    <rect class="one" x="162" y="0" width="46" height="32" rx="7"/>
    <rect class="one" x="216" y="0" width="46" height="32" rx="7"/>
  </g>
  <g transform="translate(150 234)">
    <rect class="one" x="0" y="0" width="46" height="32" rx="7"/>
    <rect class="one" x="54" y="0" width="46" height="32" rx="7"/>
    <rect class="two" x="108" y="0" width="100" height="32" rx="7"/>
    <line class="divider" x1="158" y1="0" x2="158" y2="32"/>
    <rect class="one" x="216" y="0" width="46" height="32" rx="7"/>
  </g>
  <g transform="translate(150 278)">
    <rect class="one" x="0" y="0" width="46" height="32" rx="7"/>
    <rect class="one" x="54" y="0" width="46" height="32" rx="7"/>
    <rect class="one" x="108" y="0" width="46" height="32" rx="7"/>
    <rect class="two" x="162" y="0" width="100" height="32" rx="7"/>
    <line class="divider" x1="212" y1="0" x2="212" y2="32"/>
  </g>

  <text class="label" x="64" y="448">k = 2</text>
  <g transform="translate(150 380)">
    <rect class="two" x="0" y="0" width="100" height="32" rx="7"/>
    <line class="divider" x1="50" y1="0" x2="50" y2="32"/>
    <rect class="two" x="108" y="0" width="100" height="32" rx="7"/>
    <line class="divider" x1="158" y1="0" x2="158" y2="32"/>
    <rect class="one" x="216" y="0" width="46" height="32" rx="7"/>
  </g>
  <g transform="translate(150 424)">
    <rect class="two" x="0" y="0" width="100" height="32" rx="7"/>
    <line class="divider" x1="50" y1="0" x2="50" y2="32"/>
    <rect class="one" x="108" y="0" width="46" height="32" rx="7"/>
    <rect class="two" x="162" y="0" width="100" height="32" rx="7"/>
    <line class="divider" x1="212" y1="0" x2="212" y2="32"/>
  </g>
  <g transform="translate(150 468)">
    <rect class="one" x="0" y="0" width="46" height="32" rx="7"/>
    <rect class="two" x="54" y="0" width="100" height="32" rx="7"/>
    <line class="divider" x1="104" y1="0" x2="104" y2="32"/>
    <rect class="two" x="162" y="0" width="100" height="32" rx="7"/>
    <line class="divider" x1="212" y1="0" x2="212" y2="32"/>
  </g>
</svg>
